<svg width="262" height="255" viewBox="0 0 262 255" fill="none" xmlns="http://www.w3.org/2000/svg">
<path d="M122.973 111.986H150.222L201.469 58.1905L185.998 47.4666L254.033 22.1512L220.807 87.0219L212.544 69.8813L148.025 136.071L122.973 111.986Z" fill="white"/>
<path d="M122.973 255H145.476V150.925L112.249 118.842H97.0425C97.0425 118.842 101.789 92.6472 143.542 99.6793L156.815 86.0547C156.815 86.0547 133.697 69.8809 101.789 81.308C101.789 81.308 67.332 97.0423 73.6609 139.938H106.272L123.061 156.639V255H122.973Z" fill="white"/>
<path d="M260.977 118.842H181.339L158.133 144.597V252.363C217.115 239.793 261.329 188.723 261.329 127.632C261.329 66.541 261.241 121.743 260.977 118.842ZM221.51 187.844C212.72 199.886 199.71 212.456 180.46 223.532V140.026H239.969C239.969 140.026 239.969 162.704 221.422 187.932L221.51 187.844Z" fill="white"/>
<path d="M132.73 40.786V20.3051C152.508 21.0083 170.879 26.8976 186.701 36.3909V35.9514L208.325 25.8428C186.613 9.58118 158.573 0 129.214 0C57.8387 0 0 56.696 0 126.753C0 196.81 48.5212 244.54 111.458 253.154L112.249 232.146C101.701 230.739 92.4716 228.718 83.1541 224.586L92.5595 205.864C98.9763 208.676 105.833 210.786 112.952 212.105L113.304 201.469C77.6164 195.052 50.5429 165.429 50.5429 128.159C50.5429 90.8894 85.1758 51.7735 127.808 51.7735C170.44 51.7735 162.528 56.2565 175.801 65.9256L183.537 58.1024V57.575C169.736 47.6422 151.101 41.4892 132.818 40.786H132.73ZM28.7436 81.7477L47.9059 90.8015C42.6319 101.613 39.7311 113.568 39.5553 126.225H18.4592C18.4592 110.315 22.2389 95.2844 28.7436 81.7477ZM83.6815 201.556L72.9576 220.103C58.8935 212.368 47.9938 202.348 38.5884 189.602L55.9928 178.702C63.3764 188.811 72.606 195.315 83.5936 201.644L83.6815 201.556ZM50.455 168.418L33.3144 180.197C25.4033 167.011 20.3051 151.98 18.8987 135.982H39.9948C41.2255 147.673 44.9173 158.661 50.455 168.418ZM52.6525 82.363L33.4023 73.2213C42.1924 58.5419 54.4985 46.1479 69.2658 37.0062L80.6929 54.6743C69.3537 61.7942 59.7725 71.1996 52.7404 82.363H52.6525ZM122.973 40.9617C110.843 41.7529 99.4158 44.9173 89.0435 49.9276L77.6164 32.2596C91.3289 25.3154 106.712 21.1841 122.973 20.393V40.9617Z" fill="white"/>
</svg>
